<?xml version="1.0" encoding="utf-8"?>
<!-- Generator: Adobe Illustrator 21.0.0, SVG Export Plug-In . SVG Version: 6.00 Build 0)  -->
<svg version="1.1" id="Layer_1" xmlns="http://www.w3.org/2000/svg" xmlns:xlink="http://www.w3.org/1999/xlink" x="0px" y="0px"
	 viewBox="0 0 289.4 77.3" style="enable-background:new 0 0 289.4 77.3;" xml:space="preserve">
<style type="text/css">
	.st0{fill:#B91E21;}
	.st1{fill-rule:evenodd;clip-rule:evenodd;fill:#B91E21;}
</style>
<g>
	<g>
		<path d="M70.1,27.3v14.5h11.8V27.3h4.1v13.6c0,1.6-0.3,2.7-0.9,3.3c-0.6,0.6-1.8,0.9-3.5,0.9H70.4c-1.7,0-2.9-0.3-3.5-0.9
			c-0.6-0.6-0.9-1.7-0.9-3.3V27.3H70.1L70.1,27.3z M103.4,30.4h-9.3v4.7h9.3c0.7,0,1.2-0.1,1.5-0.3c0.3-0.2,0.4-0.6,0.4-1.1v-1.9
			c0-0.5-0.1-0.9-0.4-1.1C104.7,30.5,104.2,30.4,103.4,30.4L103.4,30.4z M90,45.1V27.3h15.3c1.4,0,2.4,0.3,3.1,0.8
			c0.6,0.5,1,1.4,1,2.6v4c0,1.2-0.3,2.1-1,2.6c-0.6,0.6-1.7,0.8-3.1,0.8H94.1v7H90L90,45.1z M125.7,30.4h-9.3v4.7h9.3
			c0.7,0,1.2-0.1,1.5-0.3c0.3-0.2,0.4-0.6,0.4-1.1v-1.9c0-0.5-0.1-0.9-0.4-1.1C126.9,30.5,126.4,30.4,125.7,30.4L125.7,30.4z
			 M112.2,45.1V27.3h15.3c1.4,0,2.4,0.3,3.1,0.8c0.6,0.5,0.9,1.4,0.9,2.6v4c0,1.2-0.3,2.1-0.9,2.6c-0.6,0.6-1.7,0.8-3.1,0.8h-11.2v7
			H112.2L112.2,45.1z M136.5,45.1V27.3h18.3v3h-14.1v4h8.2v3h-8.2v4.4H155v3.4H136.5L136.5,45.1z M170.9,30.4h-9.3v5h9.3
			c0.7,0,1.2-0.1,1.5-0.3c0.3-0.2,0.4-0.6,0.4-1.1v-2.1c0-0.5-0.1-0.9-0.4-1.1C172.1,30.5,171.6,30.4,170.9,30.4L170.9,30.4z
			 M157.4,45.1V27.3h15.3c1.4,0,2.4,0.3,3.1,0.8c0.6,0.5,1,1.4,1,2.6v4.2c0,1.2-0.3,2.1-1,2.6c-0.6,0.6-1.7,0.8-3.1,0.8h-2.3
			l8.2,6.7h-6l-7.2-6.7h-3.9v6.7H157.4L157.4,45.1z"/>
	</g>
	<g>
		<path class="st0" d="M192.2,30.5v14.6H188V30.5h-8.2v-3.2h20.6v3.2H192.2L192.2,30.5z M201.3,31.5c0-1.6,0.3-2.7,0.9-3.3
			c0.6-0.6,1.8-0.9,3.5-0.9h13.1c1.7,0,2.9,0.3,3.5,0.9c0.6,0.6,0.9,1.7,0.9,3.3v9.4c0,1.6-0.3,2.7-0.9,3.3
			c-0.6,0.6-1.8,0.9-3.5,0.9h-13.1c-1.7,0-2.9-0.3-3.5-0.9c-0.6-0.6-0.9-1.7-0.9-3.3V31.5L201.3,31.5z M205.4,41.8h13.7V30.5h-13.7
			V41.8L205.4,41.8z M226.1,31.5c0-1.6,0.3-2.7,0.9-3.3c0.6-0.6,1.8-0.9,3.5-0.9h13.1c1.7,0,2.9,0.3,3.5,0.9
			c0.6,0.6,0.9,1.7,0.9,3.3v9.4c0,1.6-0.3,2.7-0.9,3.3c-0.6,0.6-1.8,0.9-3.5,0.9h-13.1c-1.7,0-2.9-0.3-3.5-0.9
			c-0.6-0.6-0.9-1.7-0.9-3.3V31.5L226.1,31.5z M230.2,41.8h13.7V30.5h-13.7V41.8L230.2,41.8z M251.3,45.1V27.3h4.2v14.5h13.4v3.4
			H251.3L251.3,45.1z M285.5,30.4h-11.7v3.8h11.1c1.7,0,2.9,0.3,3.5,0.9c0.6,0.6,0.9,1.7,0.9,3.3v2.4c0,1.6-0.3,2.7-0.9,3.3
			c-0.6,0.6-1.8,0.9-3.5,0.9h-11c-1.7,0-2.9-0.3-3.5-0.9c-0.6-0.6-0.9-1.7-0.9-3.3v-0.5l3.7-0.8v2.1h12.6v-4.1h-11.1
			c-1.7,0-2.9-0.3-3.5-0.9c-0.6-0.6-0.9-1.7-0.9-3.3v-2c0-1.6,0.3-2.7,0.9-3.3c0.6-0.6,1.8-0.9,3.5-0.9h10.1c1.7,0,2.8,0.3,3.5,0.9
			c0.6,0.6,1,1.6,1,3.1v0.4l-3.7,0.9V30.4L285.5,30.4z"/>
	</g>
	<g>
		<path class="st1" d="M30,5.4c4.4,2.3,7.8,5,10.9,8.1c2.9,2.9,5.4,6.2,7.6,9.5c1.9,2.9,3.6,6.1,5,9.3c1.3,3,2.4,6.1,3.2,9.1
			c0.8,3,1.3,5.9,1.6,8.6c0.2,2.6,0.3,5.1,0,7.5c-0.2,2.6-0.9,5.3-1.7,7.7c-0.8,2.4-1.4,3.8-3.1,6c-1.7,2.2-3.9,3.9-6.4,4.9
			c-2.6,1.1-5.6,1.5-9,1.1c-4.2-0.5-8.7-2.2-13.2-5.3c-2.5-1.7-5.1-3.8-7.5-6.4c-2.7-2.7-3.9-3.9-7.6-9.6
			c-3.7-5.7-8.2-16.1-9.4-24.2c-1.2-8.7,0-16.2,3.4-21.7c2.8-4.5,7.1-7,12-7.6C20.4,1.8,25.6,3.1,30,5.4L30,5.4z M34.4,11.8
			c3.6,1.6,5,3,7.6,5.3c2.4,2.2,4.8,4.9,6.6,7.6c3.1,4.7,5.6,10.3,7.1,15.6c1.4,5.3,1.8,9.9,1.4,13.9c-0.4,4.2-2.2,8.7-4.2,10.7
			c-2,2.1-3.3,2.5-5.2,3c-2.1,0.4-4.4,0.2-7-0.6c-3-1-6.2-2.9-9.2-5.8c-3.4-3.1-6.6-7.2-9.5-12.7C19,43.2,17,37.3,16.4,31.9
			C15.6,26.1,16.2,21,18,17.2c1.5-3.3,4.1-5.4,7.1-6.3C27.9,10.1,30.8,10.2,34.4,11.8L34.4,11.8z"/>
	</g>
	<g>
		<path class="st1" d="M39.7,2.4c2.8,1.7,5,3.8,7.1,6.1c1.9,2.2,3.7,4.7,5.2,7.3c1.4,2.3,2.6,4.8,3.6,7.2c1,2.4,1.8,4.8,2.4,7.1
			c0.6,2.4,1,4.6,1.2,6.6c0.2,2,0.2,3.9,0,5.6c-0.2,1.9-0.6,3.7-1.3,5.3c-0.6,1.6-1,2.5-2.2,3.7c-1.2,1.2-2.8,2-4.5,2.2
			c-1.8,0.2-3.8-0.2-6-1.1c-2.7-1.2-5.5-3.2-8.2-6c-1.5-1.5-3-3.3-4.4-5.3c-1.5-2.1-2.2-3.1-4.3-7.2c-2-4.1-4.4-11-5.1-16.1
			c-0.7-5.4-0.2-10.1,1.5-13.3c1.4-2.8,3.7-4.2,6.4-4.5C34-0.2,37,0.7,39.7,2.4L39.7,2.4z M42.6,7c3,1.6,7,5.8,9.6,10.1
			c2.2,3.7,4.1,8.1,5.1,12.2c1.1,4.1,1.4,7.6,1.1,10.5c-0.3,3.1-1.7,6-3.1,7.1c-1.4,1.1-2.3,1.2-3.7,1.1c-1.4-0.1-3-0.7-4.7-1.7
			c-1.9-1.2-4-3.1-5.9-5.5c-2.1-2.6-4.1-5.8-5.8-9.8c-1.7-4-2.8-8-3.3-11.6c-0.5-3.8-0.2-7.1,0.8-9.5C33.6,7.7,35,6.5,36.8,6
			C38.5,5.6,39.6,5.4,42.6,7L42.6,7z"/>
	</g>
</g>
</svg>
